<svg width="25" height="22" viewBox="0 0 25 22" fill="none" xmlns="http://www.w3.org/2000/svg">
<path d="M22.0557 2.87586L22.0549 2.87509C21.4472 2.28989 20.7298 1.82399 19.9412 1.50348L19.9399 1.50296C19.1218 1.16912 18.2436 0.998012 17.3567 1.00002L17.3544 1.00002C16.1071 1.00002 14.893 1.33551 13.8402 1.96643L13.8402 1.96645C13.5883 2.11736 13.3499 2.2826 13.1246 2.46213L12.5014 2.95863L11.8783 2.46213C11.653 2.2826 11.4145 2.11736 11.1627 1.96645L11.1627 1.96643C10.1098 1.33551 8.89579 1.00002 7.64844 1.00002C6.74861 1.00002 5.8816 1.16892 5.06294 1.50297L5.06187 1.5034C4.27024 1.82535 3.55886 2.28732 2.94763 2.87538L2.94625 2.8767C2.34036 3.45741 1.85733 4.1483 1.52367 4.90974L22.0557 2.87586ZM22.0557 2.87586C22.6611 3.45753 23.1444 4.14859 23.4793 4.90991C23.8264 5.70225 24.0025 6.5397 24 7.40224V7.40512C24 8.21226 23.8322 9.07576 23.4806 9.97878L23.4798 9.98107M22.0557 2.87586L23.4798 9.98107M1.51912 9.97828C1.81429 10.7352 2.24473 11.5384 2.80846 12.365C3.70219 13.6737 4.94987 15.0651 6.52893 16.4971L6.52904 16.4972C7.83694 17.6837 9.14248 18.6901 10.1368 19.4091C10.6332 19.7681 11.05 20.054 11.3481 20.2534C11.4972 20.3531 11.6163 20.431 11.7005 20.4853C11.7427 20.5125 11.7758 20.5337 11.7994 20.5486C11.8181 20.5604 11.8282 20.5667 11.8315 20.5688C11.8328 20.5696 11.833 20.5697 11.8323 20.5693L11.8402 20.5741L11.848 20.579L12.5 20.9897L13.152 20.579L13.1522 20.5789C13.2454 20.5202 15.8457 18.8761 18.471 16.4971L1.51912 9.97828ZM1.51912 9.97828C1.16769 9.07544 1 8.21211 1 7.40512C1 6.54059 1.17653 5.70216 1.52363 4.90981L1.51912 9.97828ZM23.4798 9.98107C23.1886 10.7344 22.7566 11.5363 22.1918 12.3645L23.4798 9.98107Z" stroke="white" stroke-width="2"/>
</svg>
