<svg width="21" height="23" viewBox="0 0 21 23" fill="none" xmlns="http://www.w3.org/2000/svg">
<path d="M19 17.2857C19.4037 17.2857 19.7678 17.043 19.9231 16.6703C20.0783 16.2977 19.9943 15.8682 19.7101 15.5816C17.799 13.6545 17.3262 11.7608 17.1626 9.94593C17.1207 9.48105 17.0994 9.02222 17.08 8.55724C17.0779 8.50529 17.0757 8.45313 17.0736 8.40081C17.0569 7.99252 17.0397 7.57449 17.0088 7.16947C16.9393 6.2584 16.7946 5.301 16.3542 4.41292C15.7276 3.14908 14.8783 2.26897 13.8327 1.72005C12.8034 1.17963 11.6597 1 10.5 1C9.34031 1 8.19661 1.17963 7.16725 1.72005C6.1217 2.26897 5.2724 3.14908 4.64575 4.41292C4.20541 5.301 4.06068 6.2584 3.99118 7.16948C3.96028 7.5745 3.94315 7.99255 3.92641 8.40086C3.92427 8.45316 3.92213 8.50531 3.91997 8.55724C3.90064 9.02222 3.87928 9.48105 3.83737 9.94593C3.67376 11.7608 3.20098 13.6545 1.28994 15.5816C1.00568 15.8682 0.921654 16.2977 1.07692 16.6703C1.23219 17.043 1.5963 17.2857 2 17.2857H19Z" stroke="white" stroke-width="2" stroke-linecap="round" stroke-linejoin="round"/>
</svg>
