<svg width="15" height="16" viewBox="0 0 15 16" fill="none" xmlns="http://www.w3.org/2000/svg">
<path d="M15 13.7437V7.84969C15 7.43963 14.9167 7.03387 14.7551 6.65728C14.5935 6.28069 14.3571 5.94119 14.0602 5.65957L8.5305 0.411728C8.252 0.147323 7.88327 0 7.5 0C7.11673 0 6.748 0.147323 6.4695 0.411728L0.93975 5.65957C0.642918 5.94119 0.406464 6.28069 0.244873 6.65728C0.0832825 7.03387 -4.3393e-05 7.43963 1.69526e-08 7.84969V13.7437C1.69526e-08 14.1432 0.158035 14.5263 0.43934 14.8088C0.720644 15.0913 1.10218 15.25 1.5 15.25H13.5C13.8978 15.25 14.2794 15.0913 14.5607 14.8088C14.842 14.5263 15 14.1432 15 13.7437Z" fill="white"/>
</svg>
