<svg width="24" height="25" viewBox="0 0 24 25" fill="none" xmlns="http://www.w3.org/2000/svg">
<path d="M23 12.4822V12.4823V21.8548C23 22.2242 22.853 22.5788 22.5907 22.8406C22.3283 23.1025 21.9719 23.25 21.6 23.25H2.4C2.02805 23.25 1.67174 23.1025 1.40934 22.8406C1.14701 22.5788 1 22.2242 1 21.8548V12.4823V12.4822C0.999945 11.9665 1.10537 11.4562 1.30989 10.9825C1.5144 10.5088 1.81372 10.0817 2.18963 9.72723L2.18974 9.72712L11.0373 1.38218L11.0375 1.38206C11.2973 1.13691 11.6417 1 12 1C12.3583 1 12.7027 1.13691 12.9625 1.38206L12.9627 1.38218L21.8103 9.72712L21.8104 9.72723C22.1863 10.0817 22.4856 10.5088 22.6901 10.9825L23.6082 10.5862L22.6901 10.9825C22.8946 11.4562 23.0001 11.9665 23 12.4822Z" stroke="white" stroke-width="2" stroke-linecap="round" stroke-linejoin="round"/>
</svg>
