<svg width="11" height="13" viewBox="0 0 11 13" fill="none" xmlns="http://www.w3.org/2000/svg">
<path d="M0.916667 12.8333H6.41667C6.65971 12.8331 6.89272 12.7364 7.06458 12.5646C7.23644 12.3927 7.33309 12.1597 7.33333 11.9167V10.5417H6.41667V11.9167H0.916667V0.916667H6.41667V2.29167H7.33333V0.916667C7.33309 0.673626 7.23644 0.440609 7.06458 0.268753C6.89272 0.0968977 6.65971 0.000242677 6.41667 0H0.916667C0.673626 0.000242677 0.440609 0.0968977 0.268754 0.268753C0.0968978 0.440609 0.000242677 0.673626 0 0.916667V11.9167C0.000242677 12.1597 0.0968978 12.3927 0.268754 12.5646C0.440609 12.7364 0.673626 12.8331 0.916667 12.8333Z" fill="#F7BB0E"/>
<path d="M7.60192 8.51858L9.2455 6.875H2.75V5.95833H9.2455L7.60192 4.31475L8.25 3.66666L11 6.41666L8.25 9.16666L7.60192 8.51858Z" fill="#F7BB0E"/>
</svg>
