<svg width="24" height="24" viewBox="0 0 24 24" fill="none" xmlns="http://www.w3.org/2000/svg">
<path d="M12 23.3C18.2407 23.3 23.3 18.2407 23.3 12C23.3 5.75925 18.2407 0.699998 12 0.699998C5.75926 0.699998 0.7 5.75925 0.7 12C0.7 18.2407 5.75926 23.3 12 23.3ZM23.5 12C23.5 18.3514 18.3515 23.5 12 23.5C5.64854 23.5 0.5 18.3514 0.5 12C0.5 5.64853 5.64854 0.5 12 0.5C18.3515 0.5 23.5 5.64853 23.5 12Z" stroke="white"/>
<path d="M5.935 18.2629C10.5237 17.755 13.4907 17.8002 18.079 18.2747C18.2129 18.2888 18.3398 18.3416 18.4442 18.4266C18.5488 18.5117 18.6263 18.6254 18.6672 18.7538C18.7082 18.8822 18.7109 19.0198 18.675 19.1497C18.6392 19.2793 18.5666 19.3956 18.4659 19.4846C15.7572 21.8455 13.7365 22.907 11.8395 22.9002C9.94749 22.8933 8.0284 21.8224 5.52406 19.4988L5.52387 19.4986C5.38242 19.3675 5.29999 19.1775 5.29999 18.9785V18.9779C5.29999 18.6099 5.57452 18.3029 5.935 18.2629ZM5.935 18.2629L5.87999 17.7659M5.935 18.2629L5.87999 17.7659M5.87999 17.7659C5.26319 17.8343 4.79999 18.3581 4.79999 18.9779V18.9785C4.79999 19.3133 4.93799 19.6373 5.18399 19.8653L19.1436 18.6018C19.0731 18.3809 18.9397 18.1853 18.7599 18.0388C18.58 17.8924 18.3614 17.8016 18.1308 17.7773C13.512 17.2997 10.509 17.2535 5.87999 17.7659Z" stroke="white"/>
<path d="M4.90002 18.98C4.89879 18.7056 4.99864 18.4403 5.18053 18.2348C5.36274 18.029 5.61447 17.8975 5.88754 17.8657L5.89042 17.8654L5.89042 17.8654C10.5121 17.354 13.5079 17.3993 18.1205 17.8764L18.569 17.9228V18.0268C18.6135 18.0534 18.6561 18.0833 18.6967 18.1162C18.8611 18.25 18.9832 18.4286 19.048 18.6304C19.1129 18.8322 19.1177 19.0485 19.0619 19.2529C19.0062 19.4574 18.8922 19.6413 18.7338 19.7822L18.7299 19.7857L18.7299 19.7857C16.0077 22.1578 13.8904 23.3072 11.838 23.3C9.78694 23.2926 7.77105 22.1287 5.25199 19.7921L5.25047 19.7907C5.02831 19.5829 4.90041 19.2884 4.90002 18.98ZM4.90002 18.98C4.90002 18.9795 4.90002 18.979 4.90002 18.9786H5.40002L4.90002 18.9814C4.90002 18.981 4.90002 18.9805 4.90002 18.98ZM5.03424 18.0978C5.24174 17.8652 5.52471 17.7141 5.83253 17.6706L5.86903 17.6665C10.5065 17.1532 13.5172 17.1991 18.1414 17.6777C18.3917 17.7038 18.6288 17.8023 18.824 17.9612C19.0191 18.1201 19.1637 18.3324 19.24 18.5722C19.3163 18.8119 19.3211 19.0688 19.2537 19.3112C19.1864 19.5534 19.05 19.7708 18.8611 19.9367C16.1327 22.3149 13.9675 23.5082 11.8382 23.5L11.838 23.5C9.70715 23.4923 7.6431 22.2827 5.11706 19.939C4.98534 19.8162 4.88032 19.6676 4.80857 19.5024C4.73676 19.3371 4.6998 19.1588 4.70002 18.9786L4.70001 18.977C4.69938 18.6528 4.81839 18.3397 5.03424 18.0978Z" stroke="white"/>
<path d="M16.3 9.59998C16.3 10.7404 15.847 11.8341 15.0406 12.6405C14.2342 13.4469 13.1404 13.9 12 13.9C10.8596 13.9 9.76586 13.4469 8.95945 12.6405C8.15305 11.8341 7.70001 10.7404 7.70001 9.59998C7.70001 8.45955 8.15305 7.36583 8.95945 6.55943C9.76586 5.75302 10.8596 5.29999 12 5.29999C13.1404 5.29999 14.2342 5.75302 15.0406 6.55943L15.3941 6.20587L15.0406 6.55943C15.847 7.36583 16.3 8.45955 16.3 9.59998Z" stroke="white"/>
<path fill-rule="evenodd" clip-rule="evenodd" d="M12 13.2C12.9548 13.2 13.8705 12.8207 14.5456 12.1456C15.2207 11.4704 15.6 10.5548 15.6 9.59998C15.6 8.6452 15.2207 7.72953 14.5456 7.0544C13.8705 6.37927 12.9548 5.99999 12 5.99999C11.0452 5.99999 10.1296 6.37927 9.45443 7.0544C8.7793 7.72953 8.40001 8.6452 8.40001 9.59998C8.40001 10.5548 8.7793 11.4704 9.45443 12.1456C10.1296 12.8207 11.0452 13.2 12 13.2ZM12 14.4C13.2731 14.4 14.494 13.8943 15.3941 12.9941C16.2943 12.0939 16.8 10.873 16.8 9.59998C16.8 8.32694 16.2943 7.10605 15.3941 6.20587C14.494 5.3057 13.2731 4.79999 12 4.79999C10.727 4.79999 9.50607 5.3057 8.6059 6.20587C7.70572 7.10605 7.20001 8.32694 7.20001 9.59998C7.20001 10.873 7.70572 12.0939 8.6059 12.9941C9.50607 13.8943 10.727 14.4 12 14.4Z" fill="white"/>
</svg>
