<svg width="12" height="13" viewBox="0 0 12 13" fill="none" xmlns="http://www.w3.org/2000/svg">
<path d="M6.0023 4.73004C5.57892 4.73004 5.18244 4.89859 4.88225 5.20661C4.58347 5.51463 4.4178 5.92145 4.4178 6.35588C4.4178 6.79031 4.58347 7.19713 4.88225 7.50516C5.18244 7.81173 5.57892 7.98172 6.0023 7.98172C6.42569 7.98172 6.82217 7.81173 7.12236 7.50516C7.42114 7.19713 7.58681 6.79031 7.58681 6.35588C7.58681 5.92145 7.42114 5.51463 7.12236 5.20661C6.97574 5.055 6.80122 4.93481 6.60894 4.85299C6.41666 4.77118 6.21046 4.72939 6.0023 4.73004ZM11.8405 8.15172L10.9144 7.33952C10.9583 7.06347 10.981 6.78159 10.981 6.50118C10.981 6.22076 10.9583 5.93744 10.9144 5.66283L11.8405 4.85064C11.9104 4.78919 11.9605 4.70734 11.984 4.61599C12.0075 4.52463 12.0034 4.42809 11.9722 4.3392L11.9594 4.30143C11.7046 3.57015 11.3227 2.8923 10.8323 2.30073L10.8068 2.27022C10.7472 2.19837 10.6679 2.14673 10.5792 2.12209C10.4904 2.09745 10.3965 2.10097 10.3098 2.13219L9.15999 2.55209C8.73519 2.19466 8.26224 1.91279 7.74965 1.71665L7.52734 0.483102C7.51056 0.390176 7.46663 0.304685 7.40138 0.237988C7.33612 0.171292 7.25264 0.126546 7.16201 0.109697L7.12378 0.102432C6.38746 -0.0341441 5.61149 -0.0341441 4.87517 0.102432L4.83693 0.109697C4.74631 0.126546 4.66282 0.171292 4.59756 0.237988C4.53231 0.304685 4.48838 0.390176 4.47161 0.483102L4.24788 1.72246C3.74014 1.92017 3.26715 2.20136 2.84745 2.55499L1.68916 2.13219C1.60246 2.10072 1.50847 2.09707 1.41969 2.12173C1.33091 2.14638 1.25155 2.19817 1.19215 2.27022L1.16666 2.30073C0.677137 2.89293 0.295353 3.57061 0.0395221 4.30143L0.0267781 4.3392C-0.0369419 4.52082 0.0154501 4.72423 0.158466 4.85064L1.09586 5.67155C1.05196 5.9447 1.03072 6.22367 1.03072 6.49972C1.03072 6.77869 1.05196 7.05765 1.09586 7.3279L0.161298 8.14881C0.0913417 8.21026 0.0412729 8.29211 0.0177496 8.38346C-0.00577364 8.47482 -0.00163684 8.57136 0.0296101 8.66024L0.0423541 8.69802C0.29865 9.42885 0.676723 10.1045 1.16949 10.6987L1.19498 10.7292C1.25453 10.8011 1.33389 10.8527 1.42262 10.8774C1.51134 10.902 1.60526 10.8985 1.692 10.8673L2.85028 10.4445C3.27225 10.8004 3.74237 11.0823 4.25071 11.277L4.47444 12.5163C4.49121 12.6093 4.53514 12.6948 4.6004 12.7615C4.66565 12.8282 4.74914 12.8729 4.83977 12.8898L4.878 12.897C5.62156 13.0343 6.38304 13.0343 7.12661 12.897L7.16484 12.8898C7.25547 12.8729 7.33896 12.8282 7.40421 12.7615C7.46946 12.6948 7.5134 12.6093 7.53017 12.5163L7.75248 11.2828C8.26507 11.0852 8.73802 10.8048 9.16282 10.4474L10.3126 10.8673C10.3993 10.8987 10.4933 10.9024 10.5821 10.8777C10.6709 10.8531 10.7502 10.8013 10.8096 10.7292L10.8351 10.6987C11.3279 10.1016 11.706 9.42885 11.9623 8.69802L11.975 8.66024C12.0359 8.48008 11.9835 8.27812 11.8405 8.15172ZM6.0023 8.91015C4.62737 8.91015 3.51297 7.76669 3.51297 6.35588C3.51297 4.94508 4.62737 3.80162 6.0023 3.80162C7.37724 3.80162 8.49163 4.94508 8.49163 6.35588C8.49163 7.76669 7.37724 8.91015 6.0023 8.91015Z" fill="#F7BB0E"/>
</svg>
